<?xml version="1.0" encoding="UTF-8"?> <svg xmlns="http://www.w3.org/2000/svg" xmlns:xlink="http://www.w3.org/1999/xlink" width="80.303" height="80.304" viewBox="0 0 80.303 80.304"><defs><clipPath id="clip-path"><rect id="Rectangle_1738" data-name="Rectangle 1738" width="80.303" height="80.304" transform="translate(0 0)" fill="none"></rect></clipPath></defs><g id="Group_4531" data-name="Group 4531" transform="translate(0 0)"><g id="Group_4531-2" data-name="Group 4531" clip-path="url(#clip-path)"><path id="Path_14208" data-name="Path 14208" d="M29.437,28.533a69.909,69.909,0,0,1,21.31-.17,19.073,19.073,0,0,1-10.6,28.813A19.087,19.087,0,0,1,29.437,28.533m10.39,31.1.324.089.326-.089A21.581,21.581,0,0,0,52.49,26.52l-.3-.432-.52-.079a73.923,73.923,0,0,0-23.192.183l-.515.088-.291.432A21.6,21.6,0,0,0,39.827,59.637" fill="#ab57ed"></path><path id="Path_14209" data-name="Path 14209" d="M40.152,33.573a2.544,2.544,0,0,1,1.265,4.755l-.707.406,1.208,9.28H38.385l1.208-9.28-.707-.406a2.543,2.543,0,0,1,1.266-4.755M36.973,39.92,35.6,50.459h9.1L43.33,39.92a4.925,4.925,0,0,0,1.819-3.792,5,5,0,1,0-10,0,4.926,4.926,0,0,0,1.82,3.792" fill="#ab57ed"></path><path id="Path_14210" data-name="Path 14210" d="M19.226,20.955l-6.313-.5a1.223,1.223,0,0,0-.194,2.439l7.959.633a2.61,2.61,0,0,0,2.045-.783l.017-.019a2.607,2.607,0,0,0,.783-2.045l-.634-7.957a1.222,1.222,0,1,0-2.436.193l.5,6.312L13.49,11.761a1.223,1.223,0,0,0-1.73,1.728Z" fill="#ab57ed"></path><path id="Path_14211" data-name="Path 14211" d="M58.729,68.707a1.223,1.223,0,0,0,1.122-1.316l-.5-6.313,7.466,7.466a1.223,1.223,0,1,0,1.728-1.73L61.078,59.35l6.313.5a1.222,1.222,0,1,0,.194-2.436l-7.959-.634a2.61,2.61,0,0,0-2.045.783l-.017.017a2.6,2.6,0,0,0-.783,2.045l.632,7.959a1.224,1.224,0,0,0,1.316,1.122" fill="#ab57ed"></path><path id="Path_14212" data-name="Path 14212" d="M20.452,67.391a1.222,1.222,0,1,0,2.437.194l.634-7.958a2.608,2.608,0,0,0-.784-2.046l-.017-.017a2.6,2.6,0,0,0-2.045-.782l-7.959.633a1.222,1.222,0,0,0,.194,2.436l6.313-.5-7.466,7.465a1.223,1.223,0,0,0,1.73,1.73l7.464-7.466Z" fill="#ab57ed"></path><path id="Path_14213" data-name="Path 14213" d="M57.582,22.74a2.6,2.6,0,0,0,2.045.782l7.959-.633a1.222,1.222,0,1,0-.194-2.436l-6.313.5,7.464-7.465a1.223,1.223,0,0,0-1.729-1.73l-7.466,7.466.5-6.313a1.223,1.223,0,0,0-2.438-.194l-.633,7.958a2.605,2.605,0,0,0,.784,2.046Z" fill="#ab57ed"></path><path id="Path_14214" data-name="Path 14214" d="M15.515,40.165v-.024a2.609,2.609,0,0,0-.892-2L8.547,32.96a1.223,1.223,0,0,0-1.586,1.862l4.818,4.108H1.222a1.222,1.222,0,0,0,0,2.445H11.779L6.961,45.484a1.222,1.222,0,0,0,1.586,1.86l6.076-5.18a2.608,2.608,0,0,0,.892-2" fill="#ab57ed"></path><path id="Path_14215" data-name="Path 14215" d="M64.788,40.14v.024a2.6,2.6,0,0,0,.894,2l6.074,5.18a1.223,1.223,0,0,0,1.586-1.862l-4.818-4.108H79.081a1.222,1.222,0,0,0,0-2.445H68.524l4.818-4.109a1.222,1.222,0,0,0-1.586-1.86l-6.074,5.18a2.6,2.6,0,0,0-.894,2" fill="#ab57ed"></path><path id="Path_14216" data-name="Path 14216" d="M40.152,80.3a1.223,1.223,0,0,0,1.222-1.222V68.524l4.109,4.819a1.222,1.222,0,1,0,1.86-1.586l-5.18-6.076a2.608,2.608,0,0,0-2-.892H40.14a2.609,2.609,0,0,0-2,.892l-5.18,6.076a1.223,1.223,0,0,0,1.862,1.586l4.109-4.819V79.082A1.221,1.221,0,0,0,40.152,80.3" fill="#ab57ed"></path><path id="Path_14217" data-name="Path 14217" d="M38.14,14.623a2.6,2.6,0,0,0,2,.892h.024a2.6,2.6,0,0,0,2-.892l5.18-6.074a1.224,1.224,0,0,0-1.862-1.588L41.374,11.78V1.224a1.223,1.223,0,1,0-2.445,0V11.78L34.82,6.961a1.223,1.223,0,1,0-1.86,1.588Z" fill="#ab57ed"></path></g></g></svg> 