<svg xmlns="http://www.w3.org/2000/svg" xmlns:xlink="http://www.w3.org/1999/xlink" width="67.762" height="67.762" viewBox="0 0 67.762 67.762">
  <defs>
    <clipPath id="clip-path">
      <rect id="Rectangle_1473" data-name="Rectangle 1473" width="67.762" height="67.762" fill="#eb6272"/>
    </clipPath>
  </defs>
  <g id="Group_3860" data-name="Group 3860" transform="translate(0 0)">
    <g id="Group_3859" data-name="Group 3859" transform="translate(0 0)" clip-path="url(#clip-path)">
      <path id="Path_13806" data-name="Path 13806" d="M34.328,11.806l-.439-.067a62.512,62.512,0,0,0-19.571.156l-.433.073-.248.366A18.225,18.225,0,0,0,23.9,40.115l.273.077.273-.077A18.211,18.211,0,0,0,34.58,12.172ZM24.169,38.039a16.108,16.108,0,0,1-9.043-24.17,59.018,59.018,0,0,1,17.983-.142,16.094,16.094,0,0,1-8.941,24.312" transform="translate(9.713 10.208)" fill="#eb6272"/>
      <path id="Path_13807" data-name="Path 13807" d="M23.85,17.868a4.218,4.218,0,0,0-8.436,0,4.157,4.157,0,0,0,1.536,3.2l-1.157,8.892h7.68l-1.158-8.892a4.157,4.157,0,0,0,1.536-3.2M21.124,27.9H18.141l1.02-7.83-.6-.343a2.155,2.155,0,1,1,2.136,0l-.6.343Z" transform="translate(14.248 12.617)" fill="#eb6272"/>
      <path id="Path_13808" data-name="Path 13808" d="M13.583,5.164a1.032,1.032,0,0,0-.947,1.11L13.06,11.6l-6.3-6.3A1.032,1.032,0,1,0,5.3,6.761l6.3,6.3-5.327-.423a1.032,1.032,0,1,0-.164,2.057l6.716.533a2.2,2.2,0,0,0,1.726-.66l.013-.015a2.192,2.192,0,0,0,.66-1.724l-.533-6.716a1.034,1.034,0,0,0-1.11-.947" transform="translate(4.621 4.621)" fill="#eb6272"/>
      <path id="Path_13809" data-name="Path 13809" d="M28.528,27.069l5.327.423a1.032,1.032,0,1,0,.164-2.057L27.3,24.9a2.192,2.192,0,0,0-1.724.66l-.015.015A2.2,2.2,0,0,0,24.9,27.3l.533,6.714a1.032,1.032,0,1,0,2.057-.164l-.423-5.327,6.3,6.3a1.031,1.031,0,0,0,1.459-1.459Z" transform="translate(23.012 23.012)" fill="#eb6272"/>
      <path id="Path_13810" data-name="Path 13810" d="M14.552,25.562a2.2,2.2,0,0,0-1.726-.66l-6.716.533a1.032,1.032,0,0,0,.164,2.057l5.329-.423-6.3,6.3a1.031,1.031,0,0,0,1.459,1.459l6.3-6.3-.423,5.327a1.031,1.031,0,1,0,2.055.164l.535-6.716a2.194,2.194,0,0,0-.66-1.724Z" transform="translate(4.622 23.012)" fill="#eb6272"/>
      <path id="Path_13811" data-name="Path 13811" d="M25.577,14.568a2.2,2.2,0,0,0,1.726.66l6.716-.533a1.032,1.032,0,0,0-.164-2.057l-5.329.423,6.3-6.3A1.032,1.032,0,0,0,33.368,5.3l-6.3,6.3.423-5.327a1.031,1.031,0,1,0-2.055-.164L24.9,12.828a2.192,2.192,0,0,0,.66,1.724Z" transform="translate(23.011 4.621)" fill="#eb6272"/>
      <path id="Path_13812" data-name="Path 13812" d="M13.092,20.65v-.021a2.2,2.2,0,0,0-.754-1.688l-5.125-4.37a1.032,1.032,0,1,0-1.339,1.57L9.94,19.607H1.031a1.032,1.032,0,0,0,0,2.065H9.94L5.874,25.138a1.032,1.032,0,1,0,1.339,1.57l5.125-4.37a2.2,2.2,0,0,0,.754-1.688" transform="translate(0.001 13.241)" fill="#eb6272"/>
      <path id="Path_13813" data-name="Path 13813" d="M40.47,19.609H31.56l4.068-3.468a1.032,1.032,0,0,0-1.339-1.57l-5.126,4.372a2.191,2.191,0,0,0-.752,1.688v.021a2.19,2.19,0,0,0,.752,1.686l5.126,4.372a1.032,1.032,0,1,0,1.339-1.57L31.56,21.672h8.91a1.031,1.031,0,1,0,0-2.063" transform="translate(26.261 13.241)" fill="#eb6272"/>
      <path id="Path_13814" data-name="Path 13814" d="M22.338,29.162a2.191,2.191,0,0,0-1.688-.752h-.021a2.19,2.19,0,0,0-1.686.752l-4.372,5.126a1.032,1.032,0,1,0,1.57,1.339l3.468-4.068v8.91a1.031,1.031,0,1,0,2.063,0V31.56l3.468,4.068a1.031,1.031,0,1,0,1.568-1.339Z" transform="translate(13.241 26.26)" fill="#eb6272"/>
      <path id="Path_13815" data-name="Path 13815" d="M18.942,12.339a2.191,2.191,0,0,0,1.688.752h.021a2.2,2.2,0,0,0,1.688-.752l4.37-5.126a1.031,1.031,0,1,0-1.57-1.337L21.671,9.941V1.031a1.031,1.031,0,0,0-2.063,0v8.91L16.14,5.875a1.031,1.031,0,1,0-1.568,1.337Z" transform="translate(13.241 -0.001)" fill="#eb6272"/>
    </g>
  </g>
</svg>
