<?xml version="1.0" encoding="UTF-8"?> <svg xmlns="http://www.w3.org/2000/svg" xmlns:xlink="http://www.w3.org/1999/xlink" width="88.958" height="80.304" viewBox="0 0 88.958 80.304"><defs><clipPath id="clip-path"><rect id="Rectangle_1739" data-name="Rectangle 1739" width="88.958" height="80.304" transform="translate(0 0)" fill="none"></rect></clipPath></defs><g id="Group_4532" data-name="Group 4532" transform="translate(0 0)"><g id="Group_4532-2" data-name="Group 4532" clip-path="url(#clip-path)"><path id="Path_14218" data-name="Path 14218" d="M20.2,60.6A33.875,33.875,0,0,1,10.94,43.414H8.257A36.58,36.58,0,0,0,24.982,67.7a10.741,10.741,0,0,1,.587-2.749A34.059,34.059,0,0,1,20.2,60.6" fill="#ad53f0"></path><path id="Path_14219" data-name="Path 14219" d="M44.195,2.656A33.737,33.737,0,0,1,61.254,7.287a12.111,12.111,0,0,1,.7-2.678,36.556,36.556,0,0,0-35.043-.27,12.079,12.079,0,0,1,.759,2.622A33.761,33.761,0,0,1,44.195,2.656" fill="#ad53f0"></path><path id="Path_14220" data-name="Path 14220" d="M68.193,60.6a34.235,34.235,0,0,1-4.712,3.912,10.843,10.843,0,0,1,.676,2.737,36.583,36.583,0,0,0,15.975-23.83H77.449A33.875,33.875,0,0,1,68.193,60.6" fill="#ad53f0"></path><path id="Path_14221" data-name="Path 14221" d="M15.718,3.583a5.531,5.531,0,1,1-5.53,5.53,5.539,5.539,0,0,1,5.53-5.53m0,13.717A8.186,8.186,0,1,0,7.531,9.113,8.19,8.19,0,0,0,15.718,17.3" fill="#ad53f0"></path><path id="Path_14222" data-name="Path 14222" d="M2.656,27.735A4.239,4.239,0,0,1,6.891,23.5H24.546a4.241,4.241,0,0,1,4.233,4.235V39.429h2.656V27.735a6.892,6.892,0,0,0-6.889-6.891H6.891A6.891,6.891,0,0,0,0,27.735V39.429H2.656Z" fill="#ad53f0"></path><path id="Path_14223" data-name="Path 14223" d="M73.241,3.583a5.531,5.531,0,1,1-5.53,5.53,5.537,5.537,0,0,1,5.53-5.53m0,13.717a8.186,8.186,0,1,0-8.187-8.187A8.19,8.19,0,0,0,73.241,17.3" fill="#ad53f0"></path><path id="Path_14224" data-name="Path 14224" d="M82.068,20.844H64.411a6.891,6.891,0,0,0-6.889,6.891V39.429h2.656V27.735A4.241,4.241,0,0,1,64.411,23.5H82.068A4.24,4.24,0,0,1,86.3,27.735V39.429h2.656V27.735a6.889,6.889,0,0,0-6.889-6.891" fill="#ad53f0"></path><path id="Path_14225" data-name="Path 14225" d="M44.594,44.458a5.531,5.531,0,1,1-5.53,5.53,5.537,5.537,0,0,1,5.53-5.53m0,13.717a8.187,8.187,0,1,0-8.187-8.187,8.187,8.187,0,0,0,8.187,8.187" fill="#ad53f0"></path><path id="Path_14226" data-name="Path 14226" d="M53.421,61.719H35.766a6.893,6.893,0,0,0-6.891,6.891V80.3h2.656V68.61a4.241,4.241,0,0,1,4.235-4.235H53.421a4.238,4.238,0,0,1,4.233,4.235V80.3h2.658V68.61a6.891,6.891,0,0,0-6.891-6.891" fill="#ad53f0"></path><path id="Path_14227" data-name="Path 14227" d="M10.334,38.1v-7.03a1.328,1.328,0,0,0-2.656,0v8.358h2.656Z" fill="#ad53f0"></path><path id="Path_14228" data-name="Path 14228" d="M23.758,31.735v-.664a1.328,1.328,0,0,0-2.656,0v8.358h2.656V31.735Z" fill="#ad53f0"></path><path id="Path_14229" data-name="Path 14229" d="M67.857,31.735v-.664a1.329,1.329,0,0,0-2.658,0v8.358h2.658V31.735Z" fill="#ad53f0"></path><path id="Path_14230" data-name="Path 14230" d="M81.281,31.735v-.664a1.328,1.328,0,1,0-2.656,0v8.358h2.656V31.735Z" fill="#ad53f0"></path><path id="Path_14231" data-name="Path 14231" d="M39.21,72.61v-.664a1.328,1.328,0,1,0-2.656,0V80.3H39.21V72.61Z" fill="#ad53f0"></path><path id="Path_14232" data-name="Path 14232" d="M52.635,72.61v-.664a1.329,1.329,0,0,0-2.658,0V80.3h2.658V72.61Z" fill="#ad53f0"></path></g></g></svg> 