<?xml version="1.0" encoding="UTF-8"?> <svg xmlns="http://www.w3.org/2000/svg" xmlns:xlink="http://www.w3.org/1999/xlink" width="67.152" height="79.069" viewBox="0 0 67.152 79.069"><defs><clipPath id="clip-path"><rect id="Rectangle_1740" data-name="Rectangle 1740" width="67.152" height="79.069" transform="translate(0 0)" fill="none"></rect></clipPath></defs><g id="Group_4533" data-name="Group 4533" transform="translate(0 0)"><g id="Group_4533-2" data-name="Group 4533" clip-path="url(#clip-path)"><path id="Path_14233" data-name="Path 14233" d="M16.316,8.941A4.613,4.613,0,1,1,11.7,13.554a4.627,4.627,0,0,1,4.612-4.613m0,11.538a6.926,6.926,0,1,0-6.925-6.925,6.93,6.93,0,0,0,6.925,6.925" fill="#ad53f0"></path><path id="Path_14234" data-name="Path 14234" d="M60.129,13.755a1.163,1.163,0,0,0,0,1.527l3.31,3.768h-8.46V9.987h8.46Zm-7.463.969H42.808V5.661h9.858ZM45.782,25.246l.064.029.018.024a4.472,4.472,0,0,1-4.3,3.259H25.929l-.185.037-.223.045-.194.11-.18.122-.138.173-.121.182-.062.221-.052.18L21.31,76.138v0a.68.68,0,0,1-.613.614H17.468V50.935a1.157,1.157,0,1,0-2.313,0V76.754H11.934a.682.682,0,0,1-.611-.616L9.575,52.508,8.116,32.8a1.157,1.157,0,1,0-2.307.17L7.152,51.115a8.222,8.222,0,0,1-1.994-.988,5.069,5.069,0,0,1-1.137-1.042,1.822,1.822,0,0,1-.409-.908L2.318,30.794v-.256a5.241,5.241,0,0,1,4.969-5.292ZM40.494,76.754h-17l.122-.446L27,30.872H40.494Zm26.555-68.4A1.157,1.157,0,0,0,66,7.674H54.979V4.5a1.157,1.157,0,0,0-1.156-1.158H42.807V1.157a1.156,1.156,0,1,0-2.313,0V22.933H7.233A7.551,7.551,0,0,0,0,30.538v.008l0,.3,0,.078,1.3,17.438,0,.018a4.092,4.092,0,0,0,.871,2.1,8.156,8.156,0,0,0,2.646,2.141,10.189,10.189,0,0,0,2.507.918L9.016,76.309l.12.445H1.157a1.158,1.158,0,0,0,0,2.315H53.823a1.158,1.158,0,0,0,0-2.315H42.807v-46l.019-.005.4-.1a6.4,6.4,0,0,0,.8-.248l.417-.183a6.794,6.794,0,0,0,.687-.373L45.5,29.6a6.972,6.972,0,0,0,.645-.534l.273-.247a6.7,6.7,0,0,0,.767-.93l.036-.062a6.9,6.9,0,0,0,.544-1l.135-.369.2-.537v0l.026-.182.058-.434a2.388,2.388,0,0,0-2.4-2.366H42.807V17.039h9.859v3.169a1.157,1.157,0,0,0,1.157,1.157H66a1.157,1.157,0,0,0,.869-1.92L62.54,14.518l4.324-4.924a1.158,1.158,0,0,0,.185-1.241" fill="#ad53f0"></path></g></g></svg> 