<svg xmlns="http://www.w3.org/2000/svg" xmlns:xlink="http://www.w3.org/1999/xlink" width="236.128" height="76.556" viewBox="0 0 236.128 76.556">
  <defs>
    <clipPath id="clip-path">
      <rect id="Rectangle_1496" data-name="Rectangle 1496" width="236.128" height="76.556" fill="none"/>
    </clipPath>
  </defs>
  <g id="Group_3929" data-name="Group 3929" transform="translate(0 0)">
    <g id="Group_3928" data-name="Group 3928" transform="translate(0 0)" clip-path="url(#clip-path)">
      <path id="Path_13839" data-name="Path 13839" d="M87.512,37.471l2.694-4.361a13.544,13.544,0,0,0,8.184,3.234c2.7,0,3.971-1.078,3.971-2.549,0-3.92-14.064-.733-14.064-10.045,0-3.967,3.48-7.447,9.7-7.447a15.137,15.137,0,0,1,9.558,3.233l-2.5,4.264a10,10,0,0,0-7.009-2.743c-2.254,0-3.724,1.028-3.724,2.351,0,3.528,14.016.59,14.016,10.144,0,4.312-3.676,7.6-10.241,7.6a15.942,15.942,0,0,1-10.586-3.676" transform="translate(56.672 10.558)" fill="#fff"/>
      <path id="Path_13840" data-name="Path 13840" d="M119.318,28.7c0-4.066-2.4-6.861-5.981-6.861a6.966,6.966,0,0,0-5.34,2.7v8.378a7.124,7.124,0,0,0,5.34,2.7c3.579,0,5.981-2.794,5.981-6.912M108,37.521V49.575h-6.225V16.892H108v2.989a9.141,9.141,0,0,1,7.3-3.579c6.076,0,10.487,4.509,10.487,12.4S121.374,41.146,115.3,41.146a9.039,9.039,0,0,1-7.3-3.625" transform="translate(65.908 10.557)" fill="#fff"/>
      <path id="Path_13841" data-name="Path 13841" d="M136.4,28.7c0-3.676-2.206-6.861-6.076-6.861s-6.027,3.185-6.027,6.861c0,3.725,2.155,6.908,6.027,6.908S136.4,32.425,136.4,28.7m-18.572,0c0-6.714,4.7-12.4,12.5-12.4,7.839,0,12.543,5.684,12.543,12.4,0,6.763-4.7,12.446-12.543,12.446-7.791,0-12.5-5.683-12.5-12.446" transform="translate(76.302 10.557)" fill="#fff"/>
      <path id="Path_13842" data-name="Path 13842" d="M137.63,36.991V24.642h-3.92V19.2h3.92v-6.47H143.9V19.2h4.8v5.439h-4.8V35.325c0,1.471.783,2.6,2.157,2.6a3.417,3.417,0,0,0,2.157-.685l1.321,4.706c-.929.832-2.6,1.517-5.193,1.517-4.363,0-6.714-2.254-6.714-6.468" transform="translate(86.59 8.246)" fill="#fff"/>
      <path id="Path_13843" data-name="Path 13843" d="M10.731,41.177c4.8,0,7.645-3.87,7.645-9.114S15.534,22.9,10.731,22.9a8.785,8.785,0,0,0-7.055,3.822V37.451a8.7,8.7,0,0,0,7.055,3.725M0,11.187H3.676V23.78a9.826,9.826,0,0,1,7.986-4.163c6.175,0,10.536,4.9,10.536,12.446,0,7.693-4.361,12.4-10.536,12.4a9.962,9.962,0,0,1-7.986-4.116v3.529H0Z" transform="translate(0 7.245)" fill="#fff"/>
      <rect id="Rectangle_1495" data-name="Rectangle 1495" width="3.676" height="32.683" transform="translate(26.312 18.432)" fill="#fff"/>
      <path id="Path_13844" data-name="Path 13844" d="M21.983,20.165h3.676V43.833H21.983ZM21.347,13.7a2.474,2.474,0,0,1,4.948,0,2.474,2.474,0,1,1-4.948,0" transform="translate(13.824 7.284)" fill="#fff"/>
      <path id="Path_13845" data-name="Path 13845" d="M43.127,25.075c0-4.165-2.107-5.488-5.292-5.488a9.136,9.136,0,0,0-7.009,3.676v17.3H27.152V16.891h3.674v3.43A11.744,11.744,0,0,1,39.255,16.3c4.951,0,7.546,2.5,7.546,7.645V40.559H43.127Z" transform="translate(17.584 10.558)" fill="#fff"/>
      <path id="Path_13846" data-name="Path 13846" d="M60.015,26.721a8.884,8.884,0,0,0-7.1-3.821c-4.757,0-7.6,3.92-7.6,9.162s2.839,9.114,7.6,9.114a8.8,8.8,0,0,0,7.1-3.725Zm0,13.622a9.968,9.968,0,0,1-7.989,4.117c-6.174,0-10.533-4.7-10.533-12.4,0-7.548,4.312-12.446,10.533-12.446a9.9,9.9,0,0,1,7.989,4.163V11.187h3.674V43.87H60.015Z" transform="translate(26.871 7.245)" fill="#fff"/>
      <path id="Path_13847" data-name="Path 13847" d="M94.827,6.965a39.229,39.229,0,0,0-34.8,4.223,1.254,1.254,0,0,0-2.053,1.407c-.509.367-1.013.745-1.512,1.138a.261.261,0,0,0-.041.369.256.256,0,0,0,.2.1.269.269,0,0,0,.165-.056c.5-.4,1.005-.773,1.514-1.143a1.237,1.237,0,0,0,.791.287,1.26,1.26,0,0,0,1.26-1.26,1.227,1.227,0,0,0-.068-.384A38.72,38.72,0,0,1,94.654,7.461a.263.263,0,0,0,.173-.5" transform="translate(36.5 3.032)" fill="#fff"/>
      <path id="Path_13848" data-name="Path 13848" d="M93.89,16.426a.909.909,0,0,1-.911-.9.952.952,0,0,1,.076-.367.871.871,0,0,1,.349-.4.888.888,0,0,1,.486-.147.911.911,0,0,1,.909.911.917.917,0,0,1-.527.819.939.939,0,0,1-.382.086m2.974,1.946q-.83-.964-1.7-1.875a1.572,1.572,0,0,0,.333-.975,1.612,1.612,0,0,0-1.61-1.61,1.591,1.591,0,0,0-1.008.361A43.307,43.307,0,0,0,82.322,7.1a.263.263,0,1,0-.229.473,42.931,42.931,0,0,1,10.433,7.091,1.607,1.607,0,0,0,1.364,2.463,1.579,1.579,0,0,0,.888-.27c.572.6,1.137,1.218,1.687,1.86a.264.264,0,0,0,.2.086.256.256,0,0,0,.171-.059.27.27,0,0,0,.028-.372" transform="translate(53.069 4.583)" fill="#fff"/>
      <path id="Path_13849" data-name="Path 13849" d="M61.3,16.349a.91.91,0,0,1-.911.906.859.859,0,0,1-.371-.082.886.886,0,0,1-.4-.344.856.856,0,0,1-.138-.479.907.907,0,0,1,.909-.911.918.918,0,0,1,.847.582.845.845,0,0,1,.064.33m3.75-3.664a.263.263,0,0,0-.367-.064,34.082,34.082,0,0,0-3.242,2.514,1.582,1.582,0,0,0-1.051-.4,1.606,1.606,0,0,0-1.272,2.592,41.148,41.148,0,0,0-2.763,3.158.265.265,0,0,0,.048.371.253.253,0,0,0,.163.054.263.263,0,0,0,.2-.1,40.988,40.988,0,0,1,2.737-3.125A1.611,1.611,0,0,0,62,16.349a1.583,1.583,0,0,0-.221-.814,34.574,34.574,0,0,1,3.2-2.483.267.267,0,0,0,.071-.367" transform="translate(36.461 8.142)" fill="#fff"/>
      <path id="Path_13850" data-name="Path 13850" d="M100.146,20.715c-.346-.389-.7-.764-1.056-1.135a1.255,1.255,0,0,0-1.073-1.913,1.237,1.237,0,0,0-.679.2c-9.316-8.5-21.448-10.907-32.477-6.216a.261.261,0,0,0-.14.344.265.265,0,0,0,.344.14c10.823-4.605,22.74-2.239,31.9,6.1a1.259,1.259,0,0,0,1.054,1.949,1.227,1.227,0,0,0,.713-.224c.346.359.687.723,1.023,1.1a.262.262,0,0,0,.2.087.265.265,0,0,0,.173-.066.261.261,0,0,0,.021-.371" transform="translate(41.899 6.017)" fill="#fff"/>
      <path id="Path_13851" data-name="Path 13851" d="M70.542,2.518a.908.908,0,0,1-.74-.379.826.826,0,0,1-.166-.494.069.069,0,0,1,0-.031.911.911,0,0,1,1.74-.379.9.9,0,0,1,.081.379,1.213,1.213,0,0,1-.01.138.911.911,0,0,1-.9.766M82.826.092a48.963,48.963,0,0,0-10.767.992,1.608,1.608,0,0,0-3.129.529,1.578,1.578,0,0,0,.015.219A53.545,53.545,0,0,0,56.218,7.22a.264.264,0,0,0,.135.493.245.245,0,0,0,.13-.04A52.556,52.556,0,0,1,69.1,2.328a1.61,1.61,0,0,0,3.05-.715V1.595A48.349,48.349,0,0,1,82.816.621a.271.271,0,0,0,.27-.26.269.269,0,0,0-.26-.269" transform="translate(36.323 0)" fill="#fff"/>
      <path id="Path_13852" data-name="Path 13852" d="M57.881,6.655a.263.263,0,0,0-.367-.054A66.842,66.842,0,0,0,48.75,14.43a1.257,1.257,0,0,0-1.679,1.837q-.7.8-1.392,1.626a.262.262,0,0,0,.033.371.258.258,0,0,0,.168.061.264.264,0,0,0,.2-.1c.46-.554.926-1.1,1.4-1.633a1.254,1.254,0,0,0,1.631-1.786,66.13,66.13,0,0,1,8.714-7.788.263.263,0,0,0,.054-.367" transform="translate(29.542 4.241)" fill="#fff"/>
      <path id="Path_13853" data-name="Path 13853" d="M112.848,24.8c-.369-.491-.746-.965-1.119-1.443a1.253,1.253,0,0,0-1.554-1.923c-7.137-8.549-15.509-14.8-24.622-18.4a1.173,1.173,0,0,0,.025-.242,1.256,1.256,0,0,0-2.353-.615c-1.392-.475-2.794-.9-4.213-1.249a.262.262,0,1,0-.125.509c1.409.349,2.8.771,4.182,1.241,0,.038-.012.074-.012.114a1.258,1.258,0,0,0,2.289.723c9.04,3.567,17.346,9.772,24.431,18.262a1.255,1.255,0,0,0,1.532,1.895c.374.478.748.949,1.115,1.442a.268.268,0,0,0,.211.105.272.272,0,0,0,.158-.053.266.266,0,0,0,.054-.367" transform="translate(50.958 0.596)" fill="#fff"/>
      <path id="Path_13854" data-name="Path 13854" d="M83.943,40.233A29.555,29.555,0,0,1,61.6,33.258a1.226,1.226,0,0,0,.153-.588A1.26,1.26,0,0,0,60.5,31.41a1.24,1.24,0,0,0-.736.242c-.491-.463-.974-.937-1.447-1.433a.263.263,0,0,0-.381.364c.483.5.979.987,1.478,1.455a1.254,1.254,0,0,0,1.852,1.626A30.454,30.454,0,0,0,80.7,40.943a28.93,28.93,0,0,0,3.3-.189.262.262,0,0,0-.061-.521" transform="translate(37.47 19.518)" fill="#fff"/>
      <path id="Path_13855" data-name="Path 13855" d="M86.121,35.1a.913.913,0,0,1-.911.911.868.868,0,0,1-.651-.288.9.9,0,0,1-.249-.473,1.462,1.462,0,0,1-.01-.15.914.914,0,0,1,.909-.913.894.894,0,0,1,.46.13.882.882,0,0,1,.366.394.921.921,0,0,1,.086.389m4.317-4.549a.263.263,0,0,0-.371,0,37.1,37.1,0,0,1-3.8,3.331,1.586,1.586,0,0,0-1.053-.4A1.613,1.613,0,0,0,83.6,35.1a1.639,1.639,0,0,0,.092.544,30.679,30.679,0,0,1-6.2,2.967.259.259,0,0,0,.081.507.212.212,0,0,0,.087-.012,31.755,31.755,0,0,0,6.3-3A1.61,1.61,0,0,0,86.823,35.1a1.583,1.583,0,0,0-.221-.809,37.637,37.637,0,0,0,3.836-3.368.262.262,0,0,0,0-.372" transform="translate(50.065 19.737)" fill="#fff"/>
      <path id="Path_13856" data-name="Path 13856" d="M58.915,38.478A.913.913,0,0,1,58,37.567a.792.792,0,0,1,.023-.2.93.93,0,0,1,.89-.71.909.909,0,0,1,.911.908.863.863,0,0,1-.11.428.911.911,0,0,1-.8.483M68.926,43.07A41.477,41.477,0,0,1,60.288,38.4a1.557,1.557,0,0,0,.239-.837,1.612,1.612,0,0,0-1.611-1.61,1.59,1.59,0,0,0-1.175.517q-1.658-1.357-3.224-2.9a.263.263,0,0,0-.371,0,.268.268,0,0,0,.007.372q1.6,1.574,3.3,2.971a1.585,1.585,0,0,0-.14.654,1.612,1.612,0,0,0,1.606,1.613,1.587,1.587,0,0,0,1.033-.377,41.876,41.876,0,0,0,8.788,4.757.249.249,0,0,0,.092.018.269.269,0,0,0,.247-.168.261.261,0,0,0-.15-.339" transform="translate(35.018 21.691)" fill="#fff"/>
      <path id="Path_13857" data-name="Path 13857" d="M104.9,33.474a.261.261,0,0,0-.371,0q-1.016,1.013-2.078,1.944a1.253,1.253,0,0,0-1.9,1.58,39.6,39.6,0,0,1-34.514,7.638.265.265,0,0,0-.32.189.261.261,0,0,0,.186.32,38.811,38.811,0,0,0,9.7,1.232,40.929,40.929,0,0,0,25.294-8.994,1.234,1.234,0,0,0,.743.245,1.252,1.252,0,0,0,1.132-1.8c.723-.636,1.44-1.29,2.132-1.98a.261.261,0,0,0,0-.371" transform="translate(42.55 21.628)" fill="#fff"/>
      <path id="Path_13858" data-name="Path 13858" d="M55.43,41.481a66.236,66.236,0,0,1-5.9-5.325A1.258,1.258,0,0,0,48.483,34.2a1.233,1.233,0,0,0-.638.18c-.244-.265-.488-.531-.728-.8a.263.263,0,1,0-.392.349c.242.272.486.539.732.8a1.258,1.258,0,0,0,1.7,1.789A66.755,66.755,0,0,0,55.1,41.891a.27.27,0,0,0,.163.058.263.263,0,0,0,.165-.468" transform="translate(30.216 21.691)" fill="#fff"/>
      <path id="Path_13859" data-name="Path 13859" d="M90.09,50.05a.9.9,0,0,1-.835-.55.885.885,0,0,1-.076-.361.907.907,0,0,1,.911-.911.894.894,0,0,1,.807.507.845.845,0,0,1,.1.4.4.4,0,0,1-.012.119.9.9,0,0,1-.893.792m3.857-1.886c-.776.171-1.557.328-2.338.458a1.606,1.606,0,0,0-3.125.432,48.991,48.991,0,0,1-22.813-3.094A1.3,1.3,0,0,0,65.7,45.7a1.258,1.258,0,0,0-2.312-.69A55.233,55.233,0,0,1,54.225,39.9a.264.264,0,0,0-.3.432A56.016,56.016,0,0,0,63.2,45.509a1.319,1.319,0,0,0-.02.2,1.257,1.257,0,0,0,2.279.733,50,50,0,0,0,18.012,3.411,47.131,47.131,0,0,0,5.076-.269,1.607,1.607,0,0,0,3.152-.435c.792-.135,1.585-.292,2.371-.471a.262.262,0,1,0-.119-.511" transform="translate(34.848 25.811)" fill="#fff"/>
      <path id="Path_13860" data-name="Path 13860" d="M107.177,33.039a.263.263,0,0,0-.371.028c-.662.764-1.336,1.5-2.015,2.228a1.253,1.253,0,0,0-1.9,1.079,1.251,1.251,0,0,0,.2.672A58.376,58.376,0,0,1,82.118,50.731a.262.262,0,0,0-.155.338.265.265,0,0,0,.245.171.254.254,0,0,0,.091-.018,58.813,58.813,0,0,0,21.153-13.8,1.259,1.259,0,0,0,1.725-1.776c.684-.727,1.361-1.468,2.027-2.237a.266.266,0,0,0-.028-.371" transform="translate(53.068 21.355)" fill="#fff"/>
      <path id="Path_13861" data-name="Path 13861" d="M61.36,28.271c2.447,2.944,10.339,11.579,19.4,11.579s16.955-8.635,19.4-11.579c-2.447-2.944-10.339-11.579-19.4-11.579s-16.955,8.635-19.4,11.579m19.4,14.888c-12.571,0-22.43-13.35-22.844-13.912a1.651,1.651,0,0,1,0-1.952c.414-.562,10.273-13.912,22.844-13.912s22.43,13.35,22.844,13.912a1.651,1.651,0,0,1,0,1.952c-.414.562-10.273,13.912-22.844,13.912" transform="translate(37.301 8.666)" fill="#fff"/>
      <path id="Path_13862" data-name="Path 13862" d="M78.981,17.977a.28.28,0,0,0-.41.254v3.025a.394.394,0,0,0,.117.275,5.538,5.538,0,1,1-9.172,4.155,5.624,5.624,0,0,1,1.7-4,.312.312,0,0,0,.119-.254V18.308a.269.269,0,0,0-.41-.234,8.681,8.681,0,1,0,8.06-.1" transform="translate(43 11.621)" fill="#fff"/>
      <path id="Path_13863" data-name="Path 13863" d="M71.078,26.075h2.381a.371.371,0,0,0,.371-.371V17.02a.371.371,0,0,0-.371-.371H71.078a.37.37,0,0,0-.371.371V25.7a.371.371,0,0,0,.371.371" transform="translate(45.79 10.782)" fill="#fff"/>
    </g>
  </g>
</svg>
