<svg xmlns="http://www.w3.org/2000/svg" xmlns:xlink="http://www.w3.org/1999/xlink" width="117.668" height="16.478" viewBox="0 0 117.668 16.478">
  <defs>
    <clipPath id="clip-path">
      <rect id="Rectangle_1407" data-name="Rectangle 1407" width="117.668" height="16.478" fill="none"/>
    </clipPath>
  </defs>
  <g id="Group_3652" data-name="Group 3652" clip-path="url(#clip-path)">
    <path id="Path_13495" data-name="Path 13495" d="M4.779,16.35a16.246,16.246,0,0,1,3.015.363l.613.136-.092,2.4c-1.193-.122-2.077-.18-2.651-.18a2.519,2.519,0,0,0-2.075.668,4.421,4.421,0,0,0-.51,2.527,4.532,4.532,0,0,0,.51,2.549,2.508,2.508,0,0,0,2.1.691l2.629-.18.092,2.424a21.006,21.006,0,0,1-3.694.477A4.288,4.288,0,0,1,1.1,26.809,7.458,7.458,0,0,1,0,22.266a7.173,7.173,0,0,1,1.129-4.521,4.434,4.434,0,0,1,3.65-1.4" transform="translate(0 -11.815)" fill="#fff"/>
    <path id="Path_13496" data-name="Path 13496" d="M90.457,27.954H87.42V16.622h3.015v.635a5.671,5.671,0,0,1,2.832-.907A3.437,3.437,0,0,1,96.4,17.687a7.764,7.764,0,0,1,.863,4.124v6.143H94.221V21.905a5.073,5.073,0,0,0-.341-2.141,1.365,1.365,0,0,0-1.359-.691,5.165,5.165,0,0,0-1.792.316l-.272.092v8.473" transform="translate(-63.174 -11.815)" fill="#fff"/>
    <path id="Path_13497" data-name="Path 13497" d="M133.61,7.391v8.748h-3.037V7.391H129.35V4.806h1.223v-.5A5.719,5.719,0,0,1,131.3.929,3.107,3.107,0,0,1,133.885,0a12.6,12.6,0,0,1,2.108.227L136.47.3l-.044,2.471c-.666-.031-1.223-.044-1.678-.044a.988.988,0,0,0-.907.363,2.5,2.5,0,0,0-.227,1.245v.477h2.743V7.394H133.61Z" transform="translate(-93.475 0)" fill="#fff"/>
    <path id="Path_13498" data-name="Path 13498" d="M160.15.99h3.037V4.071H160.15Zm0,4.532h3.037V16.854H160.15Z" transform="translate(-115.732 -0.715)" fill="#fff"/>
    <path id="Path_13499" data-name="Path 13499" d="M180.42,27.954V16.622h3.015v1.2a11.568,11.568,0,0,1,3.628-1.473v3.062q-1.835.387-3.151.793l-.452.158v7.591Z" transform="translate(-130.381 -11.815)" fill="#fff"/>
    <path id="Path_13500" data-name="Path 13500" d="M213.037,27.954H210V16.622h3.015v.635a5.589,5.589,0,0,1,2.674-.907,3.687,3.687,0,0,1,2.832,1.065,8.486,8.486,0,0,1,3.808-1.065,3.481,3.481,0,0,1,3.117,1.3,7.654,7.654,0,0,1,.874,4.16v6.141h-3.037V21.905a5.433,5.433,0,0,0-.316-2.141,1.256,1.256,0,0,0-1.27-.691,6.27,6.27,0,0,0-1.767.316l-.341.114c.061,1.134.092,1.994.092,2.585v5.866h-3.037V22.13a6.659,6.659,0,0,0-.294-2.369,1.25,1.25,0,0,0-1.292-.691,5.031,5.031,0,0,0-1.745.316l-.272.092v8.476Z" transform="translate(-151.757 -11.815)" fill="#fff"/>
    <path id="Path_13501" data-name="Path 13501" d="M282.3,19.217V16.749H275.95v-2.38L279.644,4.26h3.445l-4.01,9.768H282.3V9.835h3.129v4.194h1.428v2.721h-1.428V19.22H282.3Z" transform="translate(-199.415 -3.078)" fill="#fff"/>
    <path id="Path_13502" data-name="Path 13502" d="M325.727,27.954H322.69V16.622H325.7v.635a5.589,5.589,0,0,1,2.674-.907,3.687,3.687,0,0,1,2.832,1.065,8.486,8.486,0,0,1,3.808-1.065,3.481,3.481,0,0,1,3.117,1.3,7.654,7.654,0,0,1,.874,4.16v6.141h-3.037V21.905a5.433,5.433,0,0,0-.316-2.141,1.256,1.256,0,0,0-1.27-.691,6.27,6.27,0,0,0-1.767.316l-.341.114c.061,1.134.092,1.994.092,2.585v5.866h-3.037V22.13a6.658,6.658,0,0,0-.294-2.369,1.25,1.25,0,0,0-1.292-.691,5.031,5.031,0,0,0-1.745.316l-.272.092v8.476Z" transform="translate(-233.192 -11.815)" fill="#fff"/>
    <path id="Path_13503" data-name="Path 13503" d="M392.007,25.1a2.256,2.256,0,0,0,1.531.466q2.109,0,3.761-.136l.635-.069.044,2.244a20.2,20.2,0,0,1-4.715.635,4.62,4.62,0,0,1-3.716-1.359,6.793,6.793,0,0,1-1.157-4.421q0-6.095,5.009-6.1,4.942,0,4.94,5.123l-.227,2.108h-6.665a1.983,1.983,0,0,0,.56,1.506m3.342-3.819a3.1,3.1,0,0,0-.43-1.892,2.377,2.377,0,0,0-3.026.022,3.136,3.136,0,0,0-.463,1.869h3.919" transform="translate(-280.67 -11.823)" fill="#fff"/>
    <path id="Path_13504" data-name="Path 13504" d="M44.65,17.3a.2.2,0,0,0-.291.18v2.155a.274.274,0,0,0,.083.194,3.947,3.947,0,1,1-6.537,2.962,4,4,0,0,1,1.209-2.851.224.224,0,0,0,.083-.18V17.536a.191.191,0,0,0-.291-.166A6.184,6.184,0,1,0,44.65,17.3" transform="translate(-25.788 -12.486)" fill="#fff"/>
    <path id="Path_13505" data-name="Path 13505" d="M54.183,18.515h1.7a.263.263,0,0,0,.263-.263V12.063a.263.263,0,0,0-.263-.263h-1.7a.263.263,0,0,0-.263.263v6.188a.263.263,0,0,0,.263.263" transform="translate(-38.965 -8.527)" fill="#fff"/>
  </g>
</svg>
