<?xml version="1.0" encoding="UTF-8"?> <svg xmlns="http://www.w3.org/2000/svg" xmlns:xlink="http://www.w3.org/1999/xlink" id="Group_4535" data-name="Group 4535" width="81.537" height="79.069" viewBox="0 0 81.537 79.069"><defs><clipPath id="clip-path"><rect id="Rectangle_1742" data-name="Rectangle 1742" width="81.537" height="79.069" transform="translate(0 0)" fill="none"></rect></clipPath></defs><g id="Group_4535-2" data-name="Group 4535" clip-path="url(#clip-path)"><path id="Path_14246" data-name="Path 14246" d="M41.217,46.99H39.484a3.626,3.626,0,0,1-3.621-3.621,1.176,1.176,0,0,1,2.351,0,1.271,1.271,0,0,0,1.27,1.27h1.733a1.271,1.271,0,0,0,1.27-1.27V41.636a1.273,1.273,0,0,0-1.27-1.271H39.484a3.625,3.625,0,0,1-3.621-3.621V35.013a3.626,3.626,0,0,1,3.621-3.622h1.733a3.625,3.625,0,0,1,3.621,3.622,1.209,1.209,0,0,1-1.176,1.213,1.144,1.144,0,0,1-1.175-1.137,1.29,1.29,0,0,0-1.27-1.347H39.484a1.271,1.271,0,0,0-1.27,1.271v1.731a1.272,1.272,0,0,0,1.27,1.27h1.733a3.625,3.625,0,0,1,3.621,3.622v1.733a3.625,3.625,0,0,1-3.621,3.621" fill="#ad53f0"></path><path id="Path_14247" data-name="Path 14247" d="M40.351,26a13.048,13.048,0,0,0-3.482,25.625,12.781,12.781,0,0,0,6.9.014A13.047,13.047,0,0,0,40.351,26m0,28.46a15.465,15.465,0,1,1,4.039-.553,15.432,15.432,0,0,1-4.039.553" fill="#ad53f0"></path><path id="Path_14248" data-name="Path 14248" d="M47.642,76.718h9.405V63.662a1.174,1.174,0,0,1,.739-1.091c8.511-3.4,14.228-12.41,14.228-22.415,0-13.139-9.669-23.827-21.556-23.827H37.72a1.176,1.176,0,0,1-1.144-1.445c.7-2.982-1.668-9.029-3.106-12.13-2.963,1.529-8.3,4.772-9.183,7.592a7.949,7.949,0,0,0,.319,5.612,1.177,1.177,0,0,1-.669,1.582,20.39,20.39,0,0,0-3.2,1.517,22.78,22.78,0,0,0-9.123,10.11,25.173,25.173,0,0,0-1.572,4.3,1.173,1.173,0,0,1-1.136.875H2.351V46.227H8.974a1.174,1.174,0,0,1,1.132.863A23.3,23.3,0,0,0,22.72,62.277a1.173,1.173,0,0,1,.7,1.074V76.718h9.405V65.158A1.176,1.176,0,0,1,34,63.983H46.466a1.176,1.176,0,0,1,1.176,1.175Zm10.58,2.351H46.466a1.176,1.176,0,0,1-1.175-1.175V66.334H35.174v11.56A1.176,1.176,0,0,1,34,79.069H22.243a1.176,1.176,0,0,1-1.175-1.175V64.1A25.694,25.694,0,0,1,8.094,48.577H1.175A1.176,1.176,0,0,1,0,47.4V33.167a1.176,1.176,0,0,1,1.175-1.175H8.013a27.586,27.586,0,0,1,1.471-3.827A25.124,25.124,0,0,1,19.552,17.024a23.652,23.652,0,0,1,2.475-1.251,10.307,10.307,0,0,1,.017-6.129C23.53,4.889,32.5.586,33.518.11a1.176,1.176,0,0,1,1.546.537c.46.911,4.139,8.362,3.979,13.331H50.458c13.183,0,23.907,11.744,23.907,26.178,0,10.668-5.981,20.318-14.968,24.285V77.894a1.176,1.176,0,0,1-1.175,1.175" fill="#ad53f0"></path><path id="Path_14249" data-name="Path 14249" d="M73.174,40.426a1.175,1.175,0,1,1,0-2.351,6.018,6.018,0,0,0,6.011-6.011,3.731,3.731,0,0,0-1.062-2.529,3.273,3.273,0,0,0-2.732-.443,1.175,1.175,0,1,1-.415-2.314,5.47,5.47,0,0,1,4.665.962,6.11,6.11,0,0,1,1.9,4.324,8.371,8.371,0,0,1-8.362,8.362" fill="#ad53f0"></path><path id="Path_14250" data-name="Path 14250" d="M16.708,28.67a1.176,1.176,0,1,1,1.175,1.175,1.174,1.174,0,0,1-1.175-1.175" fill="#ad53f0"></path></g></svg> 