<svg xmlns="http://www.w3.org/2000/svg" xmlns:xlink="http://www.w3.org/1999/xlink" width="101.63" height="32.949" viewBox="0 0 101.63 32.949">
  <defs>
    <clipPath id="clip-path">
      <rect id="Rectangle_1405" data-name="Rectangle 1405" width="101.63" height="32.949" fill="none"/>
    </clipPath>
  </defs>
  <g id="Group_3648" data-name="Group 3648" clip-path="url(#clip-path)">
    <path id="Path_13467" data-name="Path 13467" d="M272.954,59.959l1.16-1.877a5.832,5.832,0,0,0,3.522,1.392c1.16,0,1.709-.464,1.709-1.1,0-1.687-6.053-.316-6.053-4.324,0-1.708,1.5-3.206,4.176-3.206a6.508,6.508,0,0,1,4.113,1.392L280.5,54.075a4.3,4.3,0,0,0-3.016-1.181c-.97,0-1.6.443-1.6,1.012,0,1.518,6.032.253,6.032,4.366,0,1.856-1.582,3.269-4.408,3.269a6.857,6.857,0,0,1-4.556-1.582" transform="translate(-210.897 -39.287)" fill="#fff"/>
    <path id="Path_13468" data-name="Path 13468" d="M320.116,59.98v5.188h-2.679V51.1h2.679v1.287a3.934,3.934,0,0,1,3.142-1.54c2.615,0,4.514,1.94,4.514,5.336s-1.9,5.357-4.514,5.357a3.892,3.892,0,0,1-3.142-1.561m4.872-3.8c0-1.751-1.033-2.953-2.573-2.953a3,3,0,0,0-2.3,1.16V58a3.067,3.067,0,0,0,2.3,1.16c1.54,0,2.573-1.2,2.573-2.974" transform="translate(-245.266 -39.287)" fill="#fff"/>
    <path id="Path_13469" data-name="Path 13469" d="M367.5,56.184a5.389,5.389,0,1,1,5.378,5.357,5.159,5.159,0,0,1-5.378-5.357m7.993,0a2.627,2.627,0,1,0-2.615,2.974,2.689,2.689,0,0,0,2.615-2.974" transform="translate(-283.945 -39.287)" fill="#fff"/>
    <path id="Path_13470" data-name="Path 13470" d="M418.734,50.156V44.841h-1.687V42.5h1.687V39.716h2.7V42.5H423.5v2.341h-2.067v4.6c0,.633.337,1.118.928,1.118a1.462,1.462,0,0,0,.928-.3l.57,2.025a3.306,3.306,0,0,1-2.236.654c-1.877,0-2.889-.97-2.889-2.784" transform="translate(-322.229 -30.686)" fill="#fff"/>
    <path id="Path_13471" data-name="Path 13471" d="M0,34.893H1.582v5.42A4.229,4.229,0,0,1,5.02,38.52c2.658,0,4.535,2.109,4.535,5.357,0,3.311-1.877,5.336-4.535,5.336a4.288,4.288,0,0,1-3.438-1.772V48.96H0ZM4.619,47.8c2.067,0,3.29-1.666,3.29-3.923s-1.223-3.944-3.29-3.944a3.783,3.783,0,0,0-3.037,1.645V46.2a3.748,3.748,0,0,0,3.037,1.6" transform="translate(0 -26.96)" fill="#fff"/>
    <rect id="Rectangle_1404" data-name="Rectangle 1404" width="1.582" height="14.068" transform="translate(11.325 7.933)" fill="#fff"/>
    <path id="Path_13472" data-name="Path 13472" d="M66.582,36.132a1.065,1.065,0,0,1,2.13,0,1.065,1.065,0,1,1-2.13,0m.274,2.784h1.582V49.1H66.856Z" transform="translate(-51.444 -27.103)" fill="#fff"/>
    <path id="Path_13473" data-name="Path 13473" d="M91.565,54.623c0-1.793-.907-2.362-2.278-2.362a3.933,3.933,0,0,0-3.016,1.582v7.445H84.689V51.1h1.582v1.476A5.052,5.052,0,0,1,89.9,50.848c2.13,0,3.248,1.076,3.248,3.29v7.15H91.565Z" transform="translate(-65.435 -39.287)" fill="#fff"/>
    <path id="Path_13474" data-name="Path 13474" d="M137.388,47.442a4.288,4.288,0,0,1-3.438,1.772c-2.658,0-4.535-2.025-4.535-5.336,0-3.248,1.856-5.357,4.535-5.357a4.259,4.259,0,0,1,3.438,1.793v-5.42h1.582V48.96h-1.582Zm0-5.863a3.824,3.824,0,0,0-3.058-1.645c-2.046,0-3.269,1.687-3.269,3.944s1.223,3.923,3.269,3.923a3.788,3.788,0,0,0,3.058-1.6Z" transform="translate(-99.993 -26.96)" fill="#fff"/>
    <path id="Path_13475" data-name="Path 13475" d="M192.349,15.583A16.887,16.887,0,0,0,177.371,17.4a.54.54,0,0,0-.883.605c-.219.159-.436.321-.65.491a.113.113,0,1,0,.141.177c.215-.17.433-.333.652-.492a.537.537,0,0,0,.34.123.536.536,0,0,0,.514-.708,16.668,16.668,0,0,1,14.791-1.8.113.113,0,1,0,.075-.213" transform="translate(-135.826 -11.281)" fill="#fff"/>
    <path id="Path_13476" data-name="Path 13476" d="M262.015,26.931q-.358-.414-.73-.807a.682.682,0,0,0,.144-.42.7.7,0,0,0-.693-.694.684.684,0,0,0-.434.156,18.648,18.648,0,0,0-4.546-3.087.113.113,0,1,0-.1.2,18.482,18.482,0,0,1,4.49,3.052.691.691,0,0,0,.587,1.06.678.678,0,0,0,.383-.116c.246.257.489.524.726.8a.112.112,0,0,0,.086.037.111.111,0,0,0,.074-.025.116.116,0,0,0,.012-.16m-1.28-.837a.391.391,0,0,1-.392-.389.4.4,0,0,1,.033-.158.374.374,0,0,1,.151-.172.38.38,0,0,1,.209-.063.391.391,0,0,1,.392.392.374.374,0,0,1-.058.2.383.383,0,0,1-.169.151.4.4,0,0,1-.165.037" transform="translate(-197.484 -17.052)" fill="#fff"/>
    <path id="Path_13477" data-name="Path 13477" d="M179.373,39.259a.113.113,0,0,0-.158-.028,14.565,14.565,0,0,0-1.4,1.083.679.679,0,0,0-.452-.172.691.691,0,0,0-.547,1.116,17.748,17.748,0,0,0-1.19,1.359.114.114,0,0,0,.021.16.105.105,0,0,0,.07.023.114.114,0,0,0,.088-.042,17.486,17.486,0,0,1,1.178-1.345.692.692,0,0,0,.979-.928,14.894,14.894,0,0,1,1.378-1.069.114.114,0,0,0,.03-.158m-1.614,1.577a.391.391,0,0,1-.392.39.375.375,0,0,1-.16-.035.382.382,0,0,1-.172-.148.372.372,0,0,1-.06-.206.391.391,0,0,1,.392-.392.391.391,0,0,1,.364.251.361.361,0,0,1,.028.141" transform="translate(-135.681 -30.295)" fill="#fff"/>
    <path id="Path_13478" data-name="Path 13478" d="M217.06,33.9c-.149-.167-.3-.329-.454-.489a.54.54,0,0,0-.754-.736A12.883,12.883,0,0,0,201.873,30a.113.113,0,1,0,.088.208,12.662,12.662,0,0,1,13.729,2.627.542.542,0,0,0,.761.742c.148.154.3.311.44.473a.112.112,0,0,0,.084.038.113.113,0,0,0,.084-.188" transform="translate(-155.923 -22.39)" fill="#fff"/>
    <path id="Path_13479" data-name="Path 13479" d="M186.45.039a21.066,21.066,0,0,0-4.633.427.693.693,0,0,0-1.348.227.618.618,0,0,0,.007.1A22.975,22.975,0,0,0,175,3.107a.116.116,0,0,0-.042.155.118.118,0,0,0,.1.056.1.1,0,0,0,.056-.016A22.592,22.592,0,0,1,180.543,1a.693.693,0,0,0,1.313-.309V.686a20.831,20.831,0,0,1,4.59-.42.115.115,0,0,0,.116-.111.115.115,0,0,0-.111-.116m-5.288,1.044a.389.389,0,0,1-.318-.162.357.357,0,0,1-.072-.213.031.031,0,0,1,0-.014.392.392,0,0,1,.749-.162.377.377,0,0,1,.035.162.5.5,0,0,1,0,.06.392.392,0,0,1-.387.329" transform="translate(-135.168 0.001)" fill="#fff"/>
    <path id="Path_13480" data-name="Path 13480" d="M147.56,20.469a.113.113,0,0,0-.158-.024,28.7,28.7,0,0,0-3.772,3.37.541.541,0,0,0-.722.79q-.3.344-.6.7a.113.113,0,0,0,.174.145q.3-.358.6-.7a.537.537,0,0,0,.244.06.54.54,0,0,0,.459-.829,28.5,28.5,0,0,1,3.75-3.352.113.113,0,0,0,.024-.158" transform="translate(-109.933 -15.78)" fill="#fff"/>
    <path id="Path_13481" data-name="Path 13481" d="M260.133,13.147c-.158-.212-.32-.416-.482-.622a.539.539,0,0,0-.669-.827,26.7,26.7,0,0,0-10.6-7.919.541.541,0,0,0-1-.369c-.6-.2-1.2-.386-1.813-.537a.113.113,0,0,0-.054.219c.607.15,1.206.331,1.8.534,0,.016,0,.032,0,.049a.542.542,0,0,0,.985.311,26.483,26.483,0,0,1,10.514,7.859.54.54,0,0,0,.66.816c.161.206.323.409.481.621a.113.113,0,0,0,.181-.135" transform="translate(-189.631 -2.217)" fill="#fff"/>
    <path id="Path_13482" data-name="Path 13482" d="M191.694,98.347a12.721,12.721,0,0,1-9.616-3,.534.534,0,0,0,.066-.253.54.54,0,0,0-.859-.439q-.316-.3-.623-.616a.113.113,0,0,0-.163.156c.208.217.421.424.636.627a.537.537,0,0,0-.076.272.543.543,0,0,0,.542.542.536.536,0,0,0,.33-.115,13.106,13.106,0,0,0,8.367,3.133,12.492,12.492,0,0,0,1.42-.081.113.113,0,0,0-.026-.224" transform="translate(-139.438 -72.631)" fill="#fff"/>
    <path id="Path_13483" data-name="Path 13483" d="M246.782,95.095a.113.113,0,0,0-.16,0,15.743,15.743,0,0,1-1.637,1.433.681.681,0,0,0-.452-.169.694.694,0,0,0-.693.693.714.714,0,0,0,.04.234,13.174,13.174,0,0,1-2.669,1.278.112.112,0,0,0,.035.218.094.094,0,0,0,.037,0,13.679,13.679,0,0,0,2.711-1.292.693.693,0,0,0,1.234-.434.681.681,0,0,0-.1-.348,16.081,16.081,0,0,0,1.651-1.449.114.114,0,0,0,0-.16m-1.858,1.957a.393.393,0,0,1-.392.392.372.372,0,0,1-.281-.123.379.379,0,0,1-.107-.2.538.538,0,0,1,0-.065.393.393,0,0,1,.392-.392.405.405,0,0,1,.355.225.4.4,0,0,1,.037.167" transform="translate(-186.309 -73.449)" fill="#fff"/>
    <path id="Path_13484" data-name="Path 13484" d="M175.05,108.588a17.865,17.865,0,0,1-3.718-2.008.676.676,0,0,0,.1-.359.694.694,0,0,0-.693-.693.686.686,0,0,0-.506.223c-.475-.389-.939-.807-1.387-1.25a.113.113,0,0,0-.16,0,.116.116,0,0,0,0,.16q.689.678,1.419,1.278a.681.681,0,0,0-.06.283.693.693,0,0,0,.691.693.682.682,0,0,0,.445-.162,18,18,0,0,0,3.782,2.048.105.105,0,0,0,.039.007.116.116,0,0,0,.107-.072.113.113,0,0,0-.065-.146m-4.309-1.976a.393.393,0,0,1-.392-.392.342.342,0,0,1,.009-.086.392.392,0,0,1,.114-.2.386.386,0,0,1,.269-.109.391.391,0,0,1,.392.392.394.394,0,0,1-.392.392" transform="translate(-130.312 -80.715)" fill="#fff"/>
    <path id="Path_13485" data-name="Path 13485" d="M221.8,104.2a.113.113,0,0,0-.16,0q-.437.436-.894.837a.537.537,0,0,0-.351-.132.543.543,0,0,0-.542.542.537.537,0,0,0,.075.27A17.046,17.046,0,0,1,205.077,109a.113.113,0,1,0-.056.219,16.7,16.7,0,0,0,4.173.53,17.613,17.613,0,0,0,10.886-3.871.539.539,0,0,0,.807-.67c.312-.274.62-.555.918-.853a.113.113,0,0,0,0-.16" transform="translate(-158.342 -80.484)" fill="#fff"/>
    <path id="Path_13486" data-name="Path 13486" d="M149.3,107.908a28.66,28.66,0,0,1-2.537-2.292.54.54,0,0,0-.727-.763c-.105-.114-.21-.228-.314-.344a.113.113,0,1,0-.169.15c.1.117.21.231.315.346a.541.541,0,0,0,.733.77,28.844,28.844,0,0,0,2.558,2.31.113.113,0,1,0,.141-.177" transform="translate(-112.442 -80.719)" fill="#fff"/>
    <path id="Path_13487" data-name="Path 13487" d="M185.114,127.888c-.334.074-.67.141-1.007.2a.691.691,0,0,0-1.345.186,21.078,21.078,0,0,1-9.818-1.332.557.557,0,0,0,.011-.109.542.542,0,0,0-1-.3,23.861,23.861,0,0,1-3.942-2.2.113.113,0,0,0-.13.186,24.147,24.147,0,0,0,3.991,2.228.528.528,0,0,0-.008.083.541.541,0,0,0,.981.316,21.528,21.528,0,0,0,7.752,1.468,20.291,20.291,0,0,0,2.185-.116.692.692,0,0,0,1.357-.188c.341-.058.682-.125,1.02-.2a.115.115,0,0,0,.086-.135.114.114,0,0,0-.137-.086m-1.661.812a.393.393,0,0,1-.392-.392.351.351,0,0,1,.007-.072.389.389,0,0,1,.733-.1.365.365,0,0,1,.042.174.175.175,0,0,1,0,.051.388.388,0,0,1-.385.341" transform="translate(-129.68 -96.049)" fill="#fff"/>
    <path id="Path_13488" data-name="Path 13488" d="M266.453,102.877a.113.113,0,0,0-.159.012c-.285.329-.575.647-.868.959a.54.54,0,0,0-.732.755,25.114,25.114,0,0,1-9.026,5.889.113.113,0,1,0,.078.212,25.331,25.331,0,0,0,9.1-5.939.541.541,0,0,0,.742-.764c.294-.313.586-.633.872-.963a.113.113,0,0,0-.012-.159" transform="translate(-197.483 -79.466)" fill="#fff"/>
    <path id="Path_13489" data-name="Path 13489" d="M189.624,54.557c-5.411,0-9.654-5.746-9.832-5.988a.711.711,0,0,1,0-.84c.178-.242,4.421-5.988,9.832-5.988s9.654,5.746,9.833,5.988a.712.712,0,0,1,0,.84c-.178.242-4.422,5.988-9.833,5.988m-8.351-6.408c1.054,1.267,4.45,4.984,8.351,4.984s7.3-3.717,8.351-4.984c-1.054-1.267-4.45-4.984-8.351-4.984s-7.3,3.717-8.351,4.984" transform="translate(-138.809 -32.251)" fill="#fff"/>
    <path id="Path_13490" data-name="Path 13490" d="M212.516,55.982a.12.12,0,0,0-.176.109v1.3a.166.166,0,0,0,.05.118,2.384,2.384,0,1,1-3.948,1.789,2.418,2.418,0,0,1,.731-1.722.136.136,0,0,0,.05-.109V56.125a.115.115,0,0,0-.176-.1,3.736,3.736,0,1,0,3.469-.042" transform="translate(-160.016 -43.244)" fill="#fff"/>
    <path id="Path_13491" data-name="Path 13491" d="M220.7,55.986h1.025a.159.159,0,0,0,.16-.16V52.089a.159.159,0,0,0-.16-.16H220.7a.159.159,0,0,0-.16.16v3.738a.16.16,0,0,0,.16.16" transform="translate(-170.398 -40.123)" fill="#fff"/>
  </g>
</svg>
