<?xml version="1.0" encoding="UTF-8"?> <svg xmlns="http://www.w3.org/2000/svg" xmlns:xlink="http://www.w3.org/1999/xlink" id="Group_4534" data-name="Group 4534" width="93.558" height="77.833" viewBox="0 0 93.558 77.833"><defs><clipPath id="clip-path"><rect id="Rectangle_1741" data-name="Rectangle 1741" width="93.558" height="77.833" transform="translate(0 0)" fill="none"></rect></clipPath></defs><g id="Group_4534-2" data-name="Group 4534" clip-path="url(#clip-path)"><path id="Path_14235" data-name="Path 14235" d="M92.268,0H24.219a10.1,10.1,0,0,1,2.068,2.579H90.978V36.507h-60.1l-.192,2.579H92.268a1.291,1.291,0,0,0,1.29-1.29V1.29A1.292,1.292,0,0,0,92.268,0" fill="#ab57ed"></path><path id="Path_14236" data-name="Path 14236" d="M17.555,2.579a4.9,4.9,0,1,1-4.9,4.9,4.918,4.918,0,0,1,4.9-4.9m0,12.382a7.481,7.481,0,1,0-7.48-7.48,7.488,7.488,0,0,0,7.48,7.48" fill="#ab57ed"></path><path id="Path_14237" data-name="Path 14237" d="M27.87,23.533l-.2.041-.253.052-.212.122-.2.137-.153.192-.135.2-.071.248-.056.2L22.866,74.636v0a.685.685,0,0,1-.608.616H18.839V47.6a1.29,1.29,0,1,0-2.579,0V75.254H12.854a.69.69,0,0,1-.609-.616L10.369,49.279,8.8,28.133a1.29,1.29,0,0,0-2.572.191l1.435,19.4a8.849,8.849,0,0,1-2.058-1.03A5.342,5.342,0,0,1,4.4,45.581a1.888,1.888,0,0,1-.429-.949L2.581,25.978l0-.281v.01a5.576,5.576,0,0,1,5.287-5.63H49.192a4.738,4.738,0,0,1-4.546,3.456Zm24.1-4.746a1.291,1.291,0,0,0-1.29-1.29H7.806A8.149,8.149,0,0,0,0,25.707v.009l0,.324.005.086L1.4,44.841v.017a4.463,4.463,0,0,0,.947,2.286A8.823,8.823,0,0,0,5.2,49.455a10.923,10.923,0,0,0,2.665.98L9.673,74.828a3.238,3.238,0,0,0,3.181,3h9.4a3.237,3.237,0,0,0,3.18-3.006h0l3.629-48.714h15.58a7.329,7.329,0,0,0,7.327-7.327" fill="#ab57ed"></path><path id="Path_14238" data-name="Path 14238" d="M43.069,50.259a4.725,4.725,0,1,1,4.725,4.724,4.743,4.743,0,0,1-4.725-4.724m12.028,0a7.3,7.3,0,1,0-7.3,7.305,7.311,7.311,0,0,0,7.3-7.305" fill="#ab57ed"></path><path id="Path_14239" data-name="Path 14239" d="M39.179,69.127a1.29,1.29,0,0,0-1.29,1.29v7.416h2.579V70.417a1.289,1.289,0,0,0-1.289-1.29" fill="#ab57ed"></path><path id="Path_14240" data-name="Path 14240" d="M56.359,69.127a1.29,1.29,0,0,0-1.29,1.29v7.416h2.579V70.417a1.289,1.289,0,0,0-1.289-1.29" fill="#ab57ed"></path><path id="Path_14241" data-name="Path 14241" d="M72.728,50.259a4.724,4.724,0,1,1,4.724,4.724,4.743,4.743,0,0,1-4.724-4.724m12.028,0a7.3,7.3,0,1,0-7.3,7.305,7.311,7.311,0,0,0,7.3-7.305" fill="#ab57ed"></path><path id="Path_14242" data-name="Path 14242" d="M85.363,59.954H69.513a8.167,8.167,0,0,0-6.9,3.816A8.173,8.173,0,0,0,55.7,59.954H39.856a8.194,8.194,0,0,0-8.195,8.2v9.685h2.578V68.149a5.625,5.625,0,0,1,5.617-5.616H55.7a5.625,5.625,0,0,1,5.616,5.616v9.685H63.9V68.149a5.623,5.623,0,0,1,5.614-5.616h15.85a5.622,5.622,0,0,1,5.614,5.616v9.685h2.581V68.149a8.2,8.2,0,0,0-8.195-8.2" fill="#ab57ed"></path><path id="Path_14243" data-name="Path 14243" d="M68.838,69.127a1.289,1.289,0,0,0-1.289,1.29v7.416h2.578V70.417a1.289,1.289,0,0,0-1.289-1.29" fill="#ab57ed"></path><path id="Path_14244" data-name="Path 14244" d="M86.018,69.127a1.289,1.289,0,0,0-1.289,1.29v7.416h2.579V70.417a1.29,1.29,0,0,0-1.29-1.29" fill="#ab57ed"></path><path id="Path_14245" data-name="Path 14245" d="M51.2,31.232a1.289,1.289,0,0,0,1.824,0l9.872-9.865,4.653,4.652a1.289,1.289,0,0,0,1.824,0L80.834,14.548l-.7,4.678a1.289,1.289,0,1,0,2.55.384l1.285-8.552-.007-.084-.032-.384-.031-.162-.29-.47,0-.005-.475-.292-.158-.03L82.582,9.6,82.5,9.591l-8.55,1.285a1.289,1.289,0,1,0,.382,2.55l4.68-.7L68.457,23.284l-4.652-4.652a1.291,1.291,0,0,0-1.824,0L51.2,29.408a1.291,1.291,0,0,0,0,1.824" fill="#ab57ed"></path></g></svg> 