<svg xmlns="http://www.w3.org/2000/svg" xmlns:xlink="http://www.w3.org/1999/xlink" width="212.17" height="40.448" viewBox="0 0 212.17 40.448">
  <defs>
    <clipPath id="clip-path">
      <rect id="Rectangle_1399" data-name="Rectangle 1399" width="212.17" height="40.448" fill="none"/>
    </clipPath>
  </defs>
  <g id="Group_3643" data-name="Group 3643" transform="translate(0 0)">
    <g id="Group_3643-2" data-name="Group 3643" transform="translate(0 0)" clip-path="url(#clip-path)">
      <path id="Path_13458" data-name="Path 13458" d="M101.686,59.1h-6.5V34.834h6.455v1.359a12.151,12.151,0,0,1,6.066-1.941q4.852,0,6.7,2.864t1.844,8.832V59.1h-6.5V46.142a10.922,10.922,0,0,0-.728-4.587,2.926,2.926,0,0,0-2.913-1.479,11,11,0,0,0-3.833.679l-.582.194Z" transform="translate(-53.449 -19.234)" fill="#09bdc9"/>
      <path id="Path_13459" data-name="Path 13459" d="M168.278,48.658H157.165v-33h11.113a23.173,23.173,0,0,1,7.037.9,8.4,8.4,0,0,1,4.3,2.959,12.247,12.247,0,0,1,2.111,4.854,36.73,36.73,0,0,1,.582,7.255,42.6,42.6,0,0,1-.534,7.4,14.368,14.368,0,0,1-2.014,5.243,8.4,8.4,0,0,1-4.3,3.348,20.926,20.926,0,0,1-7.183,1.044m7.037-13.1q.1-1.55.1-4.294a39.572,39.572,0,0,0-.194-4.391,8.4,8.4,0,0,0-.922-3.01,3.846,3.846,0,0,0-2.16-1.868,11.87,11.87,0,0,0-3.858-.509h-4.416V42.835h4.416q3.641,0,5.29-1.844,1.407-1.5,1.747-5.436" transform="translate(-88.254 -8.793)" fill="#030e2a"/>
      <path id="Path_13460" data-name="Path 13460" d="M230.87,52.959a4.833,4.833,0,0,0,3.276,1q4.513,0,8.056-.291l1.359-.146.1,4.805a43.071,43.071,0,0,1-10.094,1.359q-5.485,0-7.959-2.911t-2.475-9.464q0-13.054,10.725-13.054,10.579,0,10.58,10.967l-.485,4.514H229.682a4.2,4.2,0,0,0,1.188,3.227m7.158-8.176q0-2.912-.922-4.052a5.088,5.088,0,0,0-6.479.047,6.72,6.72,0,0,0-.994,4Z" transform="translate(-125.296 -19.234)" fill="#030e2a"/>
      <path id="Path_13461" data-name="Path 13461" d="M287.595,27.933V46.666h-6.5V27.933h-2.621V22.4h2.621V21.334q0-5.24,1.553-7.231t5.532-1.991a27.435,27.435,0,0,1,4.513.485l1.02.146-.1,5.29q-2.136-.1-3.591-.1a2.117,2.117,0,0,0-1.941.777,5.329,5.329,0,0,0-.485,2.668V22.4h5.872v5.532Z" transform="translate(-156.373 -6.801)" fill="#030e2a"/>
      <path id="Path_13462" data-name="Path 13462" d="M325.282,52.959a4.833,4.833,0,0,0,3.276,1q4.513,0,8.056-.291l1.359-.146.1,4.805a43.071,43.071,0,0,1-10.094,1.359q-5.485,0-7.959-2.911t-2.475-9.464q0-13.054,10.725-13.054,10.579,0,10.58,10.967l-.485,4.514H324.094a4.2,4.2,0,0,0,1.188,3.227m7.158-8.176q0-2.912-.922-4.052a5.088,5.088,0,0,0-6.479.047,6.721,6.721,0,0,0-.994,4Z" transform="translate(-178.312 -19.234)" fill="#030e2a"/>
      <path id="Path_13463" data-name="Path 13463" d="M382.707,59.1h-6.5V34.834h6.455v1.359a12.151,12.151,0,0,1,6.066-1.941q4.852,0,6.7,2.864t1.844,8.832V59.1h-6.5V46.142a10.922,10.922,0,0,0-.728-4.587,2.926,2.926,0,0,0-2.913-1.479,11,11,0,0,0-3.833.679l-.582.194Z" transform="translate(-211.254 -19.234)" fill="#030e2a"/>
      <path id="Path_13464" data-name="Path 13464" d="M455.991,13.441V47.413h-6.454v-1.02a14.2,14.2,0,0,1-5.873,1.6q-5.29,0-7.377-3.058T434.2,35.256q0-6.622,2.5-9.658t7.546-3.032a26.743,26.743,0,0,1,4.319.485l.922.194v-9.8ZM448.808,41.59l.68-.146V28.68a26.915,26.915,0,0,0-4.756-.485q-3.93,0-3.93,6.988a12.03,12.03,0,0,0,.873,5.387,3.032,3.032,0,0,0,2.888,1.6,16.84,16.84,0,0,0,4.246-.582" transform="translate(-243.821 -7.548)" fill="#030e2a"/>
      <path id="Path_13465" data-name="Path 13465" d="M27.441,10.685a.609.609,0,0,0-.894.553v6.6a.842.842,0,0,0,.256.6A12.08,12.08,0,1,1,6.8,27.5a12.255,12.255,0,0,1,3.7-8.726.686.686,0,0,0,.255-.553v-6.81a.585.585,0,0,0-.894-.511,18.93,18.93,0,1,0,17.579-.213" transform="translate(0 -5.961)" fill="#09bdc9"/>
      <path id="Path_13466" data-name="Path 13466" d="M36.116,20.559h5.192a.808.808,0,0,0,.809-.809V.81A.808.808,0,0,0,41.308,0H36.116a.808.808,0,0,0-.809.809V19.751a.808.808,0,0,0,.809.809" transform="translate(-19.826 0)" fill="#030e2a"/>
    </g>
  </g>
</svg>
