<?xml version="1.0" encoding="UTF-8"?> <svg xmlns="http://www.w3.org/2000/svg" xmlns:xlink="http://www.w3.org/1999/xlink" id="Group_4517" data-name="Group 4517" width="105.127" height="80.303" viewBox="0 0 105.127 80.303"><defs><clipPath id="clip-path"><rect id="Rectangle_1731" data-name="Rectangle 1731" width="105.127" height="80.303" transform="translate(0 0)" fill="#ad53f0"></rect></clipPath></defs><g id="Group_4523" data-name="Group 4523"><g id="Group_4522" data-name="Group 4522" clip-path="url(#clip-path)"><path id="Path_14200" data-name="Path 14200" d="M60.255,11.328a24.64,24.64,0,1,1-3.013,31.217l-2.873.62A27.434,27.434,0,1,0,51.154,21.9l2.222,2.924a24.582,24.582,0,0,1,6.879-13.5" fill="#ad53f0"></path><path id="Path_14201" data-name="Path 14201" d="M77.69,26.928a1.835,1.835,0,1,1-1.834,1.834,1.839,1.839,0,0,1,1.834-1.834m0,6.45a4.618,4.618,0,0,0,4.616-4.616,4.553,4.553,0,0,0-.536-2.114L92.934,15.486a1.39,1.39,0,1,0-1.966-1.966L79.8,24.684a4.437,4.437,0,0,0-4.228,0l-7.4-7.4a1.391,1.391,0,0,0-1.967,1.966l7.4,7.4a4.583,4.583,0,0,0,4.08,6.73" fill="#ad53f0"></path><path id="Path_14202" data-name="Path 14202" d="M94.575,30.151h3.341a1.39,1.39,0,0,0,0-2.78H94.575a1.39,1.39,0,1,0,0,2.78" fill="#ad53f0"></path><path id="Path_14203" data-name="Path 14203" d="M79.081,11.878V8.537a1.39,1.39,0,1,0-2.78,0v3.341a1.39,1.39,0,1,0,2.78,0" fill="#ad53f0"></path><path id="Path_14204" data-name="Path 14204" d="M76.3,45.648v3.341a1.39,1.39,0,1,0,2.78,0V45.648a1.39,1.39,0,0,0-2.78,0" fill="#ad53f0"></path><path id="Path_14205" data-name="Path 14205" d="M42.294,2.78A5.116,5.116,0,1,1,37.177,7.9,5.124,5.124,0,0,1,42.294,2.78m0,13.013a7.9,7.9,0,1,0-7.9-7.9,7.9,7.9,0,0,0,7.9,7.9" fill="#ad53f0"></path></g></g><path id="Path_14206" data-name="Path 14206" d="M48.64,52.792l-.005-.005Z" fill="#ad53f0"></path><g id="Group_4525" data-name="Group 4525"><g id="Group_4524" data-name="Group 4524" clip-path="url(#clip-path)"><path id="Path_14207" data-name="Path 14207" d="M2.78,60.735a2.334,2.334,0,0,1,2.329-2.329H20.181a1.388,1.388,0,0,0,1.3-.9l11.8-31.183a1.388,1.388,0,0,0-1.3-1.881H24.412a1.384,1.384,0,0,0-1.209.7L16.761,36.534a2.328,2.328,0,1,1-4.054-2.291L20.215,20.97a2.332,2.332,0,0,1,2.029-1.182H39.075a7.025,7.025,0,0,1,5.6,2.777l7.461,9.811a1.384,1.384,0,0,0,1.4.518l9.923-2.136.484-.052a2.333,2.333,0,0,1,2.337,2.219l0,.113a2.2,2.2,0,0,1-.572,1.45,2.741,2.741,0,0,1-1.479.867L52.2,37.944,51.709,38a2.334,2.334,0,0,1-1.855-.92l-5.4-7.1a1.389,1.389,0,0,0-2.4.348l-5.49,14.467a1.389,1.389,0,0,0,.388,1.544l9.868,8.554.006,0a2.359,2.359,0,0,1,.682,1.005l6.468,18.527a2.33,2.33,0,0,1-4.4,1.532L44.291,60.788a1.386,1.386,0,0,0-.406-.6l-11.308-9.71a1.39,1.39,0,0,0-2.2.554L26.319,61.552l0,.006a2.326,2.326,0,0,1-2.177,1.505H5.109A2.334,2.334,0,0,1,2.78,60.735m26.135,1.81,0,.007,0-.007,3.343-8.674,9.531,8.183,5.162,14.82a5.114,5.114,0,0,0,6.5,3.147h0a5.1,5.1,0,0,0,3.145-6.5h0L50.132,54.981l0,0a5.121,5.121,0,0,0-1.494-2.191l-9.129-7.914,4.256-11.217,3.879,5.1v0a5.122,5.122,0,0,0,5.141,1.9l12.03-2.589A5.529,5.529,0,0,0,67.8,36.316a4.986,4.986,0,0,0,1.256-3.278l-.006-.255v-.007a5.121,5.121,0,0,0-6.174-4.738h0l-9.062,1.953-6.925-9.11a9.812,9.812,0,0,0-7.811-3.873H22.244A5.108,5.108,0,0,0,17.8,19.6h0L10.287,32.874a5.108,5.108,0,0,0,1.932,6.961h0A5.1,5.1,0,0,0,19.179,37.9l6.043-10.678h4.753l-10.753,28.4H5.109a5.108,5.108,0,1,0,0,10.216H24.138a5.107,5.107,0,0,0,4.777-3.3" fill="#ad53f0"></path></g></g></svg> 