<svg id="linkedin" xmlns="http://www.w3.org/2000/svg" width="17.167" height="17.166" viewBox="0 0 17.167 17.166">
  <path id="Path_100" data-name="Path 100" d="M19.579,19.323h0v-6.3c0-3.08-.663-5.453-4.264-5.453a3.738,3.738,0,0,0-3.367,1.85H11.9V7.862H8.489V19.322h3.555V13.647c0-1.494.283-2.939,2.134-2.939,1.823,0,1.85,1.705,1.85,3.035v5.58Z" transform="translate(-2.417 -2.157)" fill="#09bdc9"/>
  <path id="Path_101" data-name="Path 101" d="M.4,7.977H3.955V19.438H.4Z" transform="translate(-0.113 -2.271)" fill="#09bdc9"/>
  <path id="Path_102" data-name="Path 102" d="M2.061,0A2.071,2.071,0,1,0,4.123,2.061,2.062,2.062,0,0,0,2.061,0Z" transform="translate(0 0)" fill="#09bdc9"/>
</svg>
