<svg xmlns="http://www.w3.org/2000/svg" xmlns:xlink="http://www.w3.org/1999/xlink" width="104.952" height="31.293" viewBox="0 0 104.952 31.293">
  <defs>
    <clipPath id="clip-path">
      <rect id="Rectangle_1406" data-name="Rectangle 1406" width="46.399" height="31.293" fill="#fff"/>
    </clipPath>
  </defs>
  <g id="Group_4188" data-name="Group 4188" transform="translate(-1006.729 -1261.451)">
    <text id="Support" transform="translate(1060.681 1281.573)" fill="#fff" font-size="14" font-family="Roboto-Bold, Roboto" font-weight="700"><tspan x="0" y="0">Support</tspan></text>
    <g id="Group_3687" data-name="Group 3687" transform="translate(1006.729 1261.451)">
      <g id="Group_3650" data-name="Group 3650" clip-path="url(#clip-path)">
        <path id="Path_13492" data-name="Path 13492" d="M14.23,52.86c-.26-.021-.519-.043-.779-.063a14.208,14.208,0,0,1-5.063-1.344A14.713,14.713,0,0,1,.276,41.062a14.557,14.557,0,0,1,2.132-10.84A14.8,14.8,0,0,1,7.618,25.4a.45.45,0,0,1,.705.42q0,2.61,0,5.219a.645.645,0,0,1-.222.48,9.371,9.371,0,0,0-2.637,4.809A9.4,9.4,0,0,0,10.42,46.632a8.726,8.726,0,0,0,3.319.942,9.162,9.162,0,0,0,7.593-2.851,8.9,8.9,0,0,0,2.479-4.959,9.167,9.167,0,0,0-1.987-7.425,13.685,13.685,0,0,0-1.034-1.074.733.733,0,0,1-.244-.543q0-2.507,0-5.013a.474.474,0,0,1,.744-.456,14.636,14.636,0,0,1,7.481,9.308,14.191,14.191,0,0,1,.456,4.327,14.335,14.335,0,0,1-3.4,8.723,14.371,14.371,0,0,1-8.113,4.912,13.233,13.233,0,0,1-2.546.314.575.575,0,0,0-.113.025Z" transform="translate(0 -21.567)" fill="#fff"/>
        <path id="Path_13493" data-name="Path 13493" d="M175.2,44.555a19.782,19.782,0,0,0,3.546-4.266c.385-.633.714-1.3,1.062-1.954a.213.213,0,0,1,.218-.138c.7-.007,1.4.012,2.093-.046a8.623,8.623,0,0,0,5.124-2.005,6.519,6.519,0,0,0,2.079-3.49,9.114,9.114,0,0,0-.2-5.15,7.105,7.105,0,0,0-4.155-4.347,9.126,9.126,0,0,0-3.17-.726c-.583-.028-1.167-.028-1.75-.031a.226.226,0,0,1-.245-.15,18.832,18.832,0,0,0-3.832-5.436c-.256-.254-.522-.5-.8-.761.063,0,.11-.011.157-.011,2.181,0,4.363-.039,6.543.008a15.347,15.347,0,0,1,9.5,3.285,13.182,13.182,0,0,1,4.292,6.1,14.564,14.564,0,0,1,.734,3.42,15.993,15.993,0,0,1,.024,2.895,13.261,13.261,0,0,1-4.292,8.989,14.378,14.378,0,0,1-6.54,3.358,17.656,17.656,0,0,1-4.129.46c-2.021-.007-4.042,0-6.063,0Z" transform="translate(-150.072 -13.733)" fill="#fff"/>
        <path id="Path_13494" data-name="Path 13494" d="M88.93,7.943c0,2.4-.007,4.806.006,7.209a.7.7,0,0,1-.768.763c-1.276-.02-2.552-.007-3.829-.007a.616.616,0,0,1-.677-.666q0-7.286-.005-14.572A.659.659,0,0,1,84.333,0c1.276.017,2.553.024,3.829,0a.7.7,0,0,1,.775.769c-.014,2.391-.007,4.783-.007,7.174" transform="translate(-71.675 0.001)" fill="#fff"/>
      </g>
    </g>
  </g>
</svg>
