<svg xmlns="http://www.w3.org/2000/svg" width="23.645" height="16.552" viewBox="0 0 23.645 16.552">
  <path id="Path_7217" data-name="Path 7217" d="M107.7,87.624a2.962,2.962,0,0,0-2.091-2.09c-1.844-.494-9.238-.494-9.238-.494s-7.394,0-9.238.494a2.962,2.962,0,0,0-2.091,2.09,33.033,33.033,0,0,0,0,11.383,2.961,2.961,0,0,0,2.091,2.09c1.844.494,9.238.494,9.238.494s7.394,0,9.238-.494a2.961,2.961,0,0,0,2.091-2.09,33.033,33.033,0,0,0,0-11.383ZM94.008,96.862V89.768l6.143,3.547Z" transform="translate(-84.55 -85.039)" fill="#09bdc9"/>
</svg>
